<svg id="Web" xmlns="http://www.w3.org/2000/svg" viewBox="0 0 117.74 118.8"><defs><style>.cls-1{fill:#a62222;}.cls-2{fill:none;stroke:#a62222;stroke-miterlimit:10;stroke-width:2px;}</style></defs><g id="logo_mark" data-name="logo mark"><path class="cls-1" d="M29.48,64.33h.15c.87-1.57,1.78-3.1,2.68-4.48l7.57-11.26H53.77L40.41,63.71,55.66,85.86H41.42l-9-15.31-2.93,3.69V85.86H17.89V31.79H29.48Z"/><path class="cls-1" d="M99.63,31.79V74.73c0,4.23.14,8.64.31,11.13H89.63l-.48-5.46H89c-2.34,4.18-6.86,6.3-11.66,6.3-8.8,0-15.91-7.55-15.91-19.14C61.35,55,69.21,47.74,78.08,47.74c4.61,0,8.14,1.65,9.81,4.22H88V31.79ZM88,64.4a11.44,11.44,0,0,0-.15-2.09,6.89,6.89,0,0,0-6.72-5.67c-5.31,0-8,4.71-8,10.58,0,6.28,3.09,10.24,7.92,10.24a6.83,6.83,0,0,0,6.7-5.55A11,11,0,0,0,88,69.29Z"/><polygon class="cls-2" points="32.49 1 116.75 1.03 116.75 85.8 85.6 117.8 1 117.8 1 31.67 32.49 1"/></g></svg>