<svg id="Web" xmlns="http://www.w3.org/2000/svg" viewBox="0 0 289.99 56.34"><defs><style>.cls-1{fill:#231f20;}</style></defs><g id="Rechtsanwälte"><path class="cls-1" d="M0,46.21A10.81,10.81,0,0,1,2.19,46a3.64,3.64,0,0,1,2.72.85,2.52,2.52,0,0,1,.7,1.8,2.66,2.66,0,0,1-2,2.63v0A2.61,2.61,0,0,1,5.2,53.45,12.94,12.94,0,0,0,6,56.18H5.21a13.78,13.78,0,0,1-.65-2.46c-.31-1.46-.93-2.12-2.26-2.18H.72v4.64H0ZM.72,51h1.6c1.56,0,2.58-.88,2.58-2.21,0-1.55-1.14-2.18-2.73-2.18a6.16,6.16,0,0,0-1.45.14Z"/><path class="cls-1" d="M24.81,52.51c0,2.3,1.25,3.21,2.73,3.21a4.17,4.17,0,0,0,2-.41l.18.56a4.67,4.67,0,0,1-2.27.47,3.31,3.31,0,0,1-3.36-3.62c0-2.4,1.38-3.91,3.24-3.91,2.36,0,2.8,2.22,2.8,3.26a2.76,2.76,0,0,1,0,.44Zm4.59-.57a2.21,2.21,0,0,0-2.16-2.53,2.56,2.56,0,0,0-2.39,2.53Z"/><path class="cls-1" d="M54,55.87a4.65,4.65,0,0,1-2.1.47,3.41,3.41,0,0,1-3.46-3.68,3.62,3.62,0,0,1,3.71-3.85,3.75,3.75,0,0,1,1.89.45l-.25.59a3.36,3.36,0,0,0-1.71-.42,2.9,2.9,0,0,0-2.92,3.18A2.84,2.84,0,0,0,52,55.72a4.14,4.14,0,0,0,1.8-.41Z"/><path class="cls-1" d="M72.77,45.53h.72v4.74h0a2.51,2.51,0,0,1,1-1A2.68,2.68,0,0,1,76,48.81c.68,0,2.5.34,2.5,3v4.34h-.71V51.91c0-1.29-.51-2.47-2-2.47a2.37,2.37,0,0,0-2.17,1.63,2.11,2.11,0,0,0-.09.71v4.4h-.72Z"/><path class="cls-1" d="M98.83,46.89V49h2v.58h-2v4.68c0,.91.28,1.49,1.06,1.49a2.26,2.26,0,0,0,.81-.12l.09.55a2.5,2.5,0,0,1-1,.18,1.54,1.54,0,0,1-1.24-.51,2.63,2.63,0,0,1-.44-1.72V49.56H96.9V49h1.22V47.13Z"/><path class="cls-1" d="M119.23,55.23a3.08,3.08,0,0,0,1.62.5c1.14,0,1.68-.62,1.68-1.37s-.48-1.21-1.52-1.62-1.83-1.1-1.83-2a2,2,0,0,1,2.22-1.95,2.86,2.86,0,0,1,1.6.46l-.29.58a2.41,2.41,0,0,0-1.42-.43,1.26,1.26,0,0,0-1.4,1.24c0,.76.51,1.07,1.49,1.48,1.16.46,1.85,1,1.85,2.13a2.14,2.14,0,0,1-2.43,2.07,3.54,3.54,0,0,1-1.83-.5Z"/><path class="cls-1" d="M146.11,56.18l-.11-1h0a2.73,2.73,0,0,1-2.3,1.19,2,2,0,0,1-2.12-2c0-1.66,1.47-2.66,4.39-2.63v-.19c0-.71-.14-2.13-1.84-2.12a3.24,3.24,0,0,0-1.81.53l-.22-.51a3.85,3.85,0,0,1,2.11-.63c2.08,0,2.48,1.56,2.48,2.85v2.81a12.08,12.08,0,0,0,.1,1.71Zm-.17-3.85c-1.56,0-3.63.19-3.63,1.92a1.37,1.37,0,0,0,1.43,1.5,2.17,2.17,0,0,0,2.13-1.44,1.47,1.47,0,0,0,.07-.43Z"/><path class="cls-1" d="M166,50.7c0-.66,0-1.15-.06-1.72h.67l0,1.3h0a2.72,2.72,0,0,1,2.48-1.47c.69,0,2.51.36,2.51,3v4.32H171V51.93c0-1.32-.51-2.5-2-2.5a2.31,2.31,0,0,0-2.16,1.65,2.53,2.53,0,0,0-.09.64v4.46H166Z"/><path class="cls-1" d="M190.85,49l1.21,4.09c.25.85.46,1.57.62,2.26h0c.18-.67.43-1.42.72-2.25l1.44-4.1h.68L196.93,53c.29.87.52,1.61.7,2.29h0c.15-.67.37-1.4.65-2.26L199.61,49h.72l-2.4,7.2h-.62l-1.36-4a24.82,24.82,0,0,1-.74-2.45h0c-.22.85-.49,1.64-.79,2.48l-1.43,4h-.63L190.12,49Z"/><path class="cls-1" d="M222.77,56.18l-.11-1h0a2.73,2.73,0,0,1-2.29,1.19,2,2,0,0,1-2.12-2c0-1.66,1.46-2.66,4.39-2.63v-.19c0-.71-.14-2.13-1.84-2.12A3.22,3.22,0,0,0,219,50l-.23-.51a3.85,3.85,0,0,1,2.12-.63c2.07,0,2.47,1.56,2.47,2.85v2.81a10.76,10.76,0,0,0,.11,1.71Zm-.16-3.85c-1.57,0-3.64.19-3.64,1.92a1.37,1.37,0,0,0,1.43,1.5,2.17,2.17,0,0,0,2.13-1.44,1.52,1.52,0,0,0,.08-.43Zm-3.41-5.41a.58.58,0,0,1,.57-.58.59.59,0,1,1-.57.58Zm2.55,0a.58.58,0,0,1,.57-.58.57.57,0,0,1,.55.58.56.56,0,1,1-1.12,0Z"/><path class="cls-1" d="M242.71,45.53h.71V56.18h-.71Z"/><path class="cls-1" d="M263.93,46.89V49H266v.58h-2.05v4.68c0,.91.29,1.49,1.06,1.49a2.36,2.36,0,0,0,.82-.12l.08.55a2.5,2.5,0,0,1-1,.18,1.54,1.54,0,0,1-1.24-.51,2.63,2.63,0,0,1-.44-1.72V49.56H262V49h1.22V47.13Z"/><path class="cls-1" d="M284.65,52.51c0,2.3,1.25,3.21,2.74,3.21a4.15,4.15,0,0,0,2-.41l.18.56a4.63,4.63,0,0,1-2.27.47A3.3,3.3,0,0,1,284,52.72c0-2.4,1.37-3.91,3.23-3.91,2.36,0,2.81,2.22,2.81,3.26a2.76,2.76,0,0,1,0,.44Zm4.59-.57a2.21,2.21,0,0,0-2.15-2.53,2.57,2.57,0,0,0-2.4,2.53Z"/></g></svg>