<svg id="Web" xmlns="http://www.w3.org/2000/svg" viewBox="0 0 289.99 56.34"><defs><style>.cls-1{fill:#a62222;}</style></defs><g id="KD_logotype"><path class="cls-1" d="M7.12,20h.1c.53-1,1.09-1.91,1.65-2.76l4.64-6.92h8.54l-8.21,9.3,9.38,13.61H14.47L8.93,23.82,7.12,26.09v7.14H0V0H7.12Z"/><path class="cls-1" d="M34.64,4a3.53,3.53,0,0,1-3.83,3.56A3.49,3.49,0,0,1,27.11,4,3.5,3.5,0,0,1,30.87.4,3.51,3.51,0,0,1,34.64,4ZM27.31,33.23V10.32h7.13V33.23Z"/><path class="cls-1" d="M41.59,17.64c0-2.85-.09-5.26-.19-7.32h6.18l.33,3.18h.15a8.27,8.27,0,0,1,7.08-3.69c4.68,0,8.2,3.12,8.2,9.86V33.23H56.21V20.53c0-3-1.06-5-3.63-5A3.85,3.85,0,0,0,49,18.25,5.19,5.19,0,0,0,48.72,20V33.23H41.59Z"/><path class="cls-1" d="M114.49,0V26.39c0,2.6.09,5.31.19,6.84h-6.33l-.3-3.35H108a8,8,0,0,1-7.17,3.87C95.37,33.75,91,29.1,91,22c0-7.69,4.8-12.17,10.25-12.17,2.83,0,5,1,6,2.59h.09V0Zm-7.12,20.05a7,7,0,0,0-.09-1.29,4.23,4.23,0,0,0-4.13-3.49c-3.27,0-4.92,2.9-4.92,6.51,0,3.85,1.9,6.29,4.87,6.29a4.2,4.2,0,0,0,4.12-3.42,6.83,6.83,0,0,0,.15-1.61Z"/><path class="cls-1" d="M129,4a3.53,3.53,0,0,1-3.83,3.56A3.49,3.49,0,0,1,121.47,4,3.78,3.78,0,0,1,129,4Zm-7.34,29.27V10.32h7.13V33.23Z"/><path class="cls-1" d="M136,17.64c0-2.85-.08-5.26-.18-7.32h6l.3,3.1h.15a7.93,7.93,0,0,1,6.91-3.61,6.46,6.46,0,0,1,6.27,3.92h.1a9.65,9.65,0,0,1,3-2.79,8.21,8.21,0,0,1,4.35-1.13c4.38,0,7.71,3.09,7.71,9.94V33.23h-6.93V20.79c0-3.32-1.06-5.25-3.37-5.25A3.48,3.48,0,0,0,157,18a6,6,0,0,0-.26,1.81V33.23h-6.93V20.39c0-2.89-1-4.85-3.3-4.85a3.66,3.66,0,0,0-3.34,2.56,5.26,5.26,0,0,0-.26,1.81V33.23H136Z"/><path class="cls-1" d="M185,4a3.53,3.53,0,0,1-3.83,3.56A3.49,3.49,0,0,1,177.48,4,3.78,3.78,0,0,1,185,4Zm-7.34,29.27V10.32h7.13V33.23Z"/><path class="cls-1" d="M199.91,3.79v6.53H205v5.25h-5.13v8.31c0,2.76.69,4,2.81,4a9.18,9.18,0,0,0,2.12-.21l0,5.41a15.1,15.1,0,0,1-4.61.61,7.49,7.49,0,0,1-5.37-2c-1.32-1.36-2-3.54-2-6.79V15.57h-3V10.32h3V5.4Z"/><path class="cls-1" d="M210.6,17.87c0-3.36-.06-5.57-.18-7.55h6.11l.27,4.24H217a6.7,6.7,0,0,1,6.18-4.75,5.9,5.9,0,0,1,1.52.13v6.7a8.51,8.51,0,0,0-1.92-.2c-2.62,0-4.4,1.39-4.88,3.61a8.47,8.47,0,0,0-.14,1.59V33.23H210.6Z"/><path class="cls-1" d="M252.07,21.55c0,8.37-5.93,12.2-12.07,12.2-6.67,0-11.83-4.41-11.83-11.81s4.88-12.13,12.24-12.13C247.41,9.81,252.07,14.63,252.07,21.55Zm-16.56.23c0,3.91,1.65,6.88,4.69,6.88,2.77,0,4.53-2.78,4.53-6.91,0-3.38-1.3-6.86-4.53-6.86C236.81,14.89,235.51,18.39,235.51,21.78Z"/><path class="cls-1" d="M262.45,10.32l1.84,9.39c.46,2.36.92,4.9,1.3,7.52h.11c.43-2.6,1.12-5.21,1.67-7.46l2.41-9.45h5.64l2.29,9.13c.62,2.62,1.23,5.17,1.68,7.78h.1c.32-2.6.78-5.19,1.32-7.82l1.95-9.09h7l-7,22.91H276l-2.15-8c-.59-2.25-1-4.3-1.49-7.16h-.09a56.15,56.15,0,0,1-1.47,7.12l-2.29,8.07h-6.69l-6.67-22.91Z"/><path class="cls-1" d="M77.55,26.32a3.56,3.56,0,1,0-3.71-3.55A3.52,3.52,0,0,0,77.55,26.32Z"/></g></svg>