<svg id="Web" xmlns="http://www.w3.org/2000/svg" viewBox="0 0 289.99 56.34"><defs><style>.cls-1{fill:#a62222;}.cls-2{fill:#231f20;}</style></defs><g id="KD_logotype"><path class="cls-1" d="M7.12,20h.1c.53-1,1.09-1.91,1.65-2.76l4.64-6.92h8.54l-8.21,9.3,9.38,13.61H14.47L8.93,23.82,7.12,26.09v7.14H0V0H7.12Z"/><path class="cls-1" d="M34.64,4a3.53,3.53,0,0,1-3.83,3.56A3.49,3.49,0,0,1,27.11,4,3.5,3.5,0,0,1,30.87.4,3.51,3.51,0,0,1,34.64,4ZM27.31,33.23V10.32h7.13V33.23Z"/><path class="cls-1" d="M41.59,17.64c0-2.85-.09-5.26-.19-7.32h6.18l.33,3.18h.15a8.27,8.27,0,0,1,7.08-3.69c4.68,0,8.2,3.12,8.2,9.86V33.23H56.21V20.53c0-3-1.06-5-3.63-5A3.85,3.85,0,0,0,49,18.25,5.19,5.19,0,0,0,48.72,20V33.23H41.59Z"/><path class="cls-1" d="M114.49,0V26.39c0,2.6.09,5.31.19,6.84h-6.33l-.3-3.35H108a8,8,0,0,1-7.17,3.87C95.37,33.75,91,29.1,91,22c0-7.69,4.8-12.17,10.25-12.17,2.83,0,5,1,6,2.59h.09V0Zm-7.12,20.05a7,7,0,0,0-.09-1.29,4.23,4.23,0,0,0-4.13-3.49c-3.27,0-4.92,2.9-4.92,6.51,0,3.85,1.9,6.29,4.87,6.29a4.2,4.2,0,0,0,4.12-3.42,6.83,6.83,0,0,0,.15-1.61Z"/><path class="cls-1" d="M129,4a3.53,3.53,0,0,1-3.83,3.56A3.49,3.49,0,0,1,121.47,4,3.78,3.78,0,0,1,129,4Zm-7.34,29.27V10.32h7.13V33.23Z"/><path class="cls-1" d="M136,17.64c0-2.85-.08-5.26-.18-7.32h6l.3,3.1h.15a7.93,7.93,0,0,1,6.91-3.61,6.46,6.46,0,0,1,6.27,3.92h.1a9.65,9.65,0,0,1,3-2.79,8.21,8.21,0,0,1,4.35-1.13c4.38,0,7.71,3.09,7.71,9.94V33.23h-6.93V20.79c0-3.32-1.06-5.25-3.37-5.25A3.48,3.48,0,0,0,157,18a6,6,0,0,0-.26,1.81V33.23h-6.93V20.39c0-2.89-1-4.85-3.3-4.85a3.66,3.66,0,0,0-3.34,2.56,5.26,5.26,0,0,0-.26,1.81V33.23H136Z"/><path class="cls-1" d="M185,4a3.53,3.53,0,0,1-3.83,3.56A3.49,3.49,0,0,1,177.48,4,3.78,3.78,0,0,1,185,4Zm-7.34,29.27V10.32h7.13V33.23Z"/><path class="cls-1" d="M199.91,3.79v6.53H205v5.25h-5.13v8.31c0,2.76.69,4,2.81,4a9.18,9.18,0,0,0,2.12-.21l0,5.41a15.1,15.1,0,0,1-4.61.61,7.49,7.49,0,0,1-5.37-2c-1.32-1.36-2-3.54-2-6.79V15.57h-3V10.32h3V5.4Z"/><path class="cls-1" d="M210.6,17.87c0-3.36-.06-5.57-.18-7.55h6.11l.27,4.24H217a6.7,6.7,0,0,1,6.18-4.75,5.9,5.9,0,0,1,1.52.13v6.7a8.51,8.51,0,0,0-1.92-.2c-2.62,0-4.4,1.39-4.88,3.61a8.47,8.47,0,0,0-.14,1.59V33.23H210.6Z"/><path class="cls-1" d="M252.07,21.55c0,8.37-5.93,12.2-12.07,12.2-6.67,0-11.83-4.41-11.83-11.81s4.88-12.13,12.24-12.13C247.41,9.81,252.07,14.63,252.07,21.55Zm-16.56.23c0,3.91,1.65,6.88,4.69,6.88,2.77,0,4.53-2.78,4.53-6.91,0-3.38-1.3-6.86-4.53-6.86C236.81,14.89,235.51,18.39,235.51,21.78Z"/><path class="cls-1" d="M262.45,10.32l1.84,9.39c.46,2.36.92,4.9,1.3,7.52h.11c.43-2.6,1.12-5.21,1.67-7.46l2.41-9.45h5.64l2.29,9.13c.62,2.62,1.23,5.17,1.68,7.78h.1c.32-2.6.78-5.19,1.32-7.82l1.95-9.09h7l-7,22.91H276l-2.15-8c-.59-2.25-1-4.3-1.49-7.16h-.09a56.15,56.15,0,0,1-1.47,7.12l-2.29,8.07h-6.69l-6.67-22.91Z"/><path class="cls-1" d="M77.55,26.32a3.56,3.56,0,1,0-3.71-3.55A3.52,3.52,0,0,0,77.55,26.32Z"/><path class="cls-2" d="M0,46.21A10.81,10.81,0,0,1,2.19,46a3.64,3.64,0,0,1,2.72.85,2.52,2.52,0,0,1,.7,1.8,2.66,2.66,0,0,1-2,2.63v0A2.61,2.61,0,0,1,5.2,53.45,12.94,12.94,0,0,0,6,56.18H5.21a13.78,13.78,0,0,1-.65-2.46c-.31-1.46-.93-2.12-2.26-2.18H.72v4.64H0ZM.72,51h1.6c1.56,0,2.58-.88,2.58-2.21,0-1.55-1.14-2.18-2.73-2.18a6.16,6.16,0,0,0-1.45.14Z"/><path class="cls-2" d="M24.81,52.51c0,2.3,1.25,3.21,2.73,3.21a4.17,4.17,0,0,0,2-.41l.18.56a4.67,4.67,0,0,1-2.27.47,3.31,3.31,0,0,1-3.36-3.62c0-2.4,1.38-3.91,3.24-3.91,2.36,0,2.8,2.22,2.8,3.26a2.76,2.76,0,0,1,0,.44Zm4.59-.57a2.21,2.21,0,0,0-2.16-2.53,2.56,2.56,0,0,0-2.39,2.53Z"/><path class="cls-2" d="M54,55.87a4.65,4.65,0,0,1-2.1.47,3.41,3.41,0,0,1-3.46-3.68,3.62,3.62,0,0,1,3.71-3.85,3.75,3.75,0,0,1,1.89.45l-.25.59a3.36,3.36,0,0,0-1.71-.42,2.9,2.9,0,0,0-2.92,3.18A2.84,2.84,0,0,0,52,55.72a4.14,4.14,0,0,0,1.8-.41Z"/><path class="cls-2" d="M72.77,45.53h.72v4.74h0a2.51,2.51,0,0,1,1-1A2.68,2.68,0,0,1,76,48.81c.68,0,2.5.34,2.5,3v4.34h-.71V51.91c0-1.29-.51-2.47-2-2.47a2.37,2.37,0,0,0-2.17,1.63,2.11,2.11,0,0,0-.09.71v4.4h-.72Z"/><path class="cls-2" d="M98.83,46.89V49h2v.58h-2v4.68c0,.91.28,1.49,1.06,1.49a2.26,2.26,0,0,0,.81-.12l.09.55a2.5,2.5,0,0,1-1,.18,1.54,1.54,0,0,1-1.24-.51,2.63,2.63,0,0,1-.44-1.72V49.56H96.9V49h1.22V47.13Z"/><path class="cls-2" d="M119.23,55.23a3.08,3.08,0,0,0,1.62.5c1.14,0,1.68-.62,1.68-1.37s-.48-1.21-1.52-1.62-1.83-1.1-1.83-2a2,2,0,0,1,2.22-1.95,2.86,2.86,0,0,1,1.6.46l-.29.58a2.41,2.41,0,0,0-1.42-.43,1.26,1.26,0,0,0-1.4,1.24c0,.76.51,1.07,1.49,1.48,1.16.46,1.85,1,1.85,2.13a2.14,2.14,0,0,1-2.43,2.07,3.54,3.54,0,0,1-1.83-.5Z"/><path class="cls-2" d="M146.11,56.18l-.11-1h0a2.73,2.73,0,0,1-2.3,1.19,2,2,0,0,1-2.12-2c0-1.66,1.47-2.66,4.39-2.63v-.19c0-.71-.14-2.13-1.84-2.12a3.24,3.24,0,0,0-1.81.53l-.22-.51a3.85,3.85,0,0,1,2.11-.63c2.08,0,2.48,1.56,2.48,2.85v2.81a12.08,12.08,0,0,0,.1,1.71Zm-.17-3.85c-1.56,0-3.63.19-3.63,1.92a1.37,1.37,0,0,0,1.43,1.5,2.17,2.17,0,0,0,2.13-1.44,1.47,1.47,0,0,0,.07-.43Z"/><path class="cls-2" d="M166,50.7c0-.66,0-1.15-.06-1.72h.67l0,1.3h0a2.72,2.72,0,0,1,2.48-1.47c.69,0,2.51.36,2.51,3v4.32H171V51.93c0-1.32-.51-2.5-2-2.5a2.31,2.31,0,0,0-2.16,1.65,2.53,2.53,0,0,0-.09.64v4.46H166Z"/><path class="cls-2" d="M190.85,49l1.21,4.09c.25.85.46,1.57.62,2.26h0c.18-.67.43-1.42.72-2.25l1.44-4.1h.68L196.93,53c.29.87.52,1.61.7,2.29h0c.15-.67.37-1.4.65-2.26L199.61,49h.72l-2.4,7.2h-.62l-1.36-4a24.82,24.82,0,0,1-.74-2.45h0c-.22.85-.49,1.64-.79,2.48l-1.43,4h-.63L190.12,49Z"/><path class="cls-2" d="M222.77,56.18l-.11-1h0a2.73,2.73,0,0,1-2.29,1.19,2,2,0,0,1-2.12-2c0-1.66,1.46-2.66,4.39-2.63v-.19c0-.71-.14-2.13-1.84-2.12A3.22,3.22,0,0,0,219,50l-.23-.51a3.85,3.85,0,0,1,2.12-.63c2.07,0,2.47,1.56,2.47,2.85v2.81a10.76,10.76,0,0,0,.11,1.71Zm-.16-3.85c-1.57,0-3.64.19-3.64,1.92a1.37,1.37,0,0,0,1.43,1.5,2.17,2.17,0,0,0,2.13-1.44,1.52,1.52,0,0,0,.08-.43Zm-3.41-5.41a.58.58,0,0,1,.57-.58.59.59,0,1,1-.57.58Zm2.55,0a.58.58,0,0,1,.57-.58.57.57,0,0,1,.55.58.56.56,0,1,1-1.12,0Z"/><path class="cls-2" d="M242.71,45.53h.71V56.18h-.71Z"/><path class="cls-2" d="M263.93,46.89V49H266v.58h-2.05v4.68c0,.91.29,1.49,1.06,1.49a2.36,2.36,0,0,0,.82-.12l.08.55a2.5,2.5,0,0,1-1,.18,1.54,1.54,0,0,1-1.24-.51,2.63,2.63,0,0,1-.44-1.72V49.56H262V49h1.22V47.13Z"/><path class="cls-2" d="M284.65,52.51c0,2.3,1.25,3.21,2.74,3.21a4.15,4.15,0,0,0,2-.41l.18.56a4.63,4.63,0,0,1-2.27.47A3.3,3.3,0,0,1,284,52.72c0-2.4,1.37-3.91,3.23-3.91,2.36,0,2.81,2.22,2.81,3.26a2.76,2.76,0,0,1,0,.44Zm4.59-.57a2.21,2.21,0,0,0-2.15-2.53,2.57,2.57,0,0,0-2.4,2.53Z"/></g></svg>