<svg id="Layer_1" data-name="Layer 1" xmlns="http://www.w3.org/2000/svg" viewBox="0 0 268 268"><defs><style>.cls-1{fill:#c1c1c1;}</style></defs><path class="cls-1" d="M253,0H15A15,15,0,0,0,0,15V253a15,15,0,0,0,15,15H253a15,15,0,0,0,15-15V15A15,15,0,0,0,253,0ZM213.46,150.94c7.3,7.13,15,13.84,21.58,21.72a61.41,61.41,0,0,1,7.73,11.12c3,5.77.29,12.11-4.89,12.44H205.79c-8.28.68-14.88-2.66-20.45-8.32-4.43-4.52-8.55-9.35-12.82-14a30.12,30.12,0,0,0-5.78-5.15c-4.37-2.84-8.17-2-10.68,2.59s-3.15,9.8-3.38,15c-.36,7.57-2.64,9.55-10.23,9.9-16.22.76-31.62-1.7-45.93-9.88-12.62-7.21-22.39-17.4-30.9-28.92C49,134.93,36.34,110.26,24.94,84.88c-2.57-5.71-.69-8.77,5.61-8.89,10.48-.21,21-.18,31.42,0,4.27.07,7.09,2.51,8.72,6.53A194.69,194.69,0,0,0,92,122c3.36,4.74,6.82,9.47,13.27,11.31,3.47-3.91,4.53-8.52,4.93-13.18a124,124,0,0,0-.51-29c-.89-6-4.29-9.93-10.31-11.07-3.06-.58-2.61-1.72-1.13-3.46,2.59-3,5-4.9,9.86-4.9h36.27c5.72,1.12,7,3.69,7.77,9.44l0,40.3c-.06,2.23,1.11,8.83,5.12,10.29,3.2,1.06,5.32-1.51,7.24-3.55,8.69-9.22,14.88-20.11,20.43-31.38,2.45-5,4.56-10.12,6.62-15.28,1.52-3.81,3.89-5.68,8.19-5.61l34.92,0a18.78,18.78,0,0,1,3.09.18c5.88,1,7.49,3.55,5.68,9.29-2.86,9-8.44,16.53-13.89,24.06-5.82,8.06-12,15.85-17.82,23.94C206.45,140.79,206.88,144.51,213.46,150.94Z"/></svg>