<svg id="Layer_1" data-name="Layer 1" xmlns="http://www.w3.org/2000/svg" viewBox="0 0 268 268"><defs><style>.cls-1{fill:#c1c1c1;}</style></defs><path class="cls-1" d="M134.15,107.17A27,27,0,1,0,107,80.44,26.82,26.82,0,0,0,134.15,107.17Z"/><path class="cls-1" d="M253,0H15A15,15,0,0,0,0,15V253a15,15,0,0,0,15,15H253a15,15,0,0,0,15-15V15A15,15,0,0,0,253,0ZM134.23,25c30.5.08,55,25,54.84,55.89-.16,30.13-25,54.56-55.51,54.46-30.15-.1-54.87-25.1-54.7-55.3A55.27,55.27,0,0,1,134.23,25ZM196,157a66.51,66.51,0,0,1-23.89,15.45c-8.52,3.29-17.87,5-27.12,6.07,1.4,1.52,2.06,2.26,2.93,3.14,12.55,12.62,25.16,25.18,37.67,37.83,4.26,4.31,5.16,9.66,2.81,14.67-2.57,5.49-8.31,9.09-13.95,8.7-3.57-.25-6.35-2-8.82-4.51-9.48-9.53-19.14-18.89-28.41-28.6-2.7-2.82-4-2.3-6.39.16-9.53,9.82-19.21,19.48-29,29.08-4.37,4.32-9.58,5.09-14.66,2.63A14.81,14.81,0,0,1,78.68,228c.18-3.74,2-6.59,4.59-9.16q18.63-18.6,37.2-37.27c.83-.82,1.59-1.7,2.79-3-16.91-1.76-32.15-5.92-45.19-16.13-1.62-1.27-3.29-2.49-4.77-3.91C67.59,153,67,146.76,71.53,140.28c3.86-5.53,10.36-7,17.1-3.84a25.16,25.16,0,0,1,3.74,2.21c24.32,16.7,57.72,17.17,82.13.76a22.14,22.14,0,0,1,8-4.14A12.57,12.57,0,0,1,196.89,141C200.47,146.82,200.42,152.5,196,157Z"/></svg>