<svg id="Layer_2" data-name="Layer 2" xmlns="http://www.w3.org/2000/svg" viewBox="0 0 456.18 463.65"><path d="M332,271.76a7.51,7.51,0,0,0-10.61-.12l-85.93,84L235.39,7.5a7.5,7.5,0,0,0-7.5-7.5h0a7.5,7.5,0,0,0-7.5,7.5l.1,348.16-85.87-84a7.5,7.5,0,0,0-10.5,10.72l98,95.94a8,8,0,0,0,1.25,1.22L228,384l4.6-4.49a8.41,8.41,0,0,0,1.24-1.22l98.08-95.91A7.51,7.51,0,0,0,332,271.76Z"/><path d="M433.68,463.65H22.5A22.53,22.53,0,0,1,0,441.15V207a22.52,22.52,0,0,1,22.5-22.5H125a7.5,7.5,0,1,1,0,15H22.5A7.5,7.5,0,0,0,15,207V441.15a7.51,7.51,0,0,0,7.5,7.5H433.68a7.52,7.52,0,0,0,7.5-7.5V207a7.51,7.51,0,0,0-7.5-7.5H331a7.5,7.5,0,0,1,0-15H433.68a22.53,22.53,0,0,1,22.5,22.5V441.15A22.53,22.53,0,0,1,433.68,463.65Z"/></svg>