<svg id="Layer_1" data-name="Layer 1" xmlns="http://www.w3.org/2000/svg" viewBox="0 0 268 268"><defs><style>.cls-1{fill:#c1c1c1;}</style></defs><path class="cls-1" d="M144.91,120.31a1.77,1.77,0,0,0,.26-.41v.41ZM268,133.85V253a15,15,0,0,1-15,15H15A15,15,0,0,1,0,253V15A15,15,0,0,1,15,0H253a15,15,0,0,1,15,15Zm-184.88-31h-40V223.1h40V102.89Zm2.61-37.17c-.25-11.81-8.66-20.79-22.34-20.79s-22.6,9-22.6,20.79c0,11.51,8.67,20.76,22.08,20.76h.26C77.07,86.48,85.73,77.23,85.73,65.72Zm141.48,88.45c0-36.92-19.73-54.1-46-54.1-21.19,0-30.68,11.65-36,19.83v-17H105.22c.51,11.27,0,120.21,0,120.21h39.95V156c0-3.64.26-7.16,1.32-9.75,2.89-7.15,9.48-14.62,20.5-14.62,14.48,0,20.25,11,20.25,27.18V223.1h40V154.17Z"/></svg>